<svg xmlns="http://www.w3.org/2000/svg" viewBox="0 0 64 64">
  <!-- The same mark as logo.svg with the finest detail dropped again: at
       16px the mouth and the headphone cups are below a pixel. -->
  <defs>
    <linearGradient id="fH" x1="0.1" y1="0" x2="0.9" y2="1">
      <stop offset="0" stop-color="#55B9C0"/><stop offset="1" stop-color="#02848B"/>
    </linearGradient>
  </defs>
  <rect width="64" height="64" rx="15" fill="#FBF4E2"/>
  <path d="M14 27 L16 8.6 Q16.3 5.8 18.9 7.4 L33 17 Z" fill="#02848B"/>
  <path d="M50 27 L48 8.6 Q47.7 5.8 45.1 7.4 L31 17 Z" fill="#02848B"/>
  <rect x="9" y="15" width="46" height="42" rx="19" fill="url(#fH)"/>
  <path d="M9 28 A19 19 0 0 1 28 15 h8 A19 19 0 0 1 55 28 Z" fill="#C3A2D0"/>
  <ellipse cx="23" cy="39" rx="7.2" ry="8" fill="#2E2545"/>
  <ellipse cx="20.8" cy="36" rx="2.5" ry="2.8" fill="#FBF4E2"/>
  <ellipse cx="41" cy="39" rx="7.2" ry="8" fill="#2E2545"/>
  <ellipse cx="38.8" cy="36" rx="2.5" ry="2.8" fill="#FBF4E2"/>
</svg>
